<svg width="27" height="27" viewBox="0 0 27 27" fill="none" xmlns="http://www.w3.org/2000/svg">
<path d="M14.3438 10.125C14.3438 9.65901 13.966 9.28125 13.5 9.28125C13.034 9.28125 12.6562 9.65901 12.6562 10.125V12.6562H10.125C9.65901 12.6562 9.28125 13.034 9.28125 13.5C9.28125 13.966 9.65901 14.3438 10.125 14.3438H12.6562V16.875C12.6562 17.341 13.034 17.7188 13.5 17.7188C13.966 17.7188 14.3438 17.341 14.3438 16.875V14.3438H16.875C17.341 14.3438 17.7188 13.966 17.7188 13.5C17.7188 13.034 17.341 12.6562 16.875 12.6562H14.3438V10.125Z" fill="#585CF1"/>
<path fill-rule="evenodd" clip-rule="evenodd" d="M13.5 1.40625C6.82081 1.40625 1.40625 6.82081 1.40625 13.5C1.40625 20.1792 6.82081 25.5938 13.5 25.5938C20.1792 25.5938 25.5938 20.1792 25.5938 13.5C25.5938 6.82081 20.1792 1.40625 13.5 1.40625ZM3.09375 13.5C3.09375 7.75279 7.75279 3.09375 13.5 3.09375C19.2472 3.09375 23.9062 7.75279 23.9062 13.5C23.9062 19.2472 19.2472 23.9062 13.5 23.9062C7.75279 23.9062 3.09375 19.2472 3.09375 13.5Z" fill="#585CF1"/>
</svg>
