<svg width="30" height="30" viewBox="0 0 30 30" fill="none" xmlns="http://www.w3.org/2000/svg">
<path d="M15.9375 11.25C15.9375 10.7322 15.5177 10.3125 15 10.3125C14.4823 10.3125 14.0625 10.7322 14.0625 11.25V14.0625H11.25C10.7322 14.0625 10.3125 14.4823 10.3125 15C10.3125 15.5177 10.7322 15.9375 11.25 15.9375H14.0625V18.75C14.0625 19.2677 14.4823 19.6875 15 19.6875C15.5177 19.6875 15.9375 19.2677 15.9375 18.75V15.9375H18.75C19.2677 15.9375 19.6875 15.5177 19.6875 15C19.6875 14.4823 19.2677 14.0625 18.75 14.0625H15.9375V11.25Z" fill="#767676"/>
<path fill-rule="evenodd" clip-rule="evenodd" d="M15 1.5625C7.57868 1.5625 1.5625 7.57868 1.5625 15C1.5625 22.4214 7.57868 28.4375 15 28.4375C22.4214 28.4375 28.4375 22.4214 28.4375 15C28.4375 7.57868 22.4214 1.5625 15 1.5625ZM3.4375 15C3.4375 8.61421 8.61421 3.4375 15 3.4375C21.3858 3.4375 26.5625 8.61421 26.5625 15C26.5625 21.3858 21.3858 26.5625 15 26.5625C8.61421 26.5625 3.4375 21.3858 3.4375 15Z" fill="#767676"/>
</svg>
