<svg width="38" height="34" viewBox="0 0 38 34" fill="none" xmlns="http://www.w3.org/2000/svg">
<path d="M18.8892 24.9326C22.2274 24.9326 24.9336 22.2264 24.9336 18.8882C24.9336 15.5499 22.2274 12.8438 18.8892 12.8438C15.5509 12.8438 12.8447 15.5499 12.8447 18.8882C12.8447 22.2264 15.5509 24.9326 18.8892 24.9326Z" fill="#585CF1"/>
<path d="M13.2222 0L9.76556 3.77778H3.77778C1.7 3.77778 0 5.47778 0 7.55556V30.2222C0 32.3 1.7 34 3.77778 34H34C36.0778 34 37.7778 32.3 37.7778 30.2222V7.55556C37.7778 5.47778 36.0778 3.77778 34 3.77778H28.0122L24.5556 0H13.2222ZM18.8889 28.3333C13.6756 28.3333 9.44444 24.1022 9.44444 18.8889C9.44444 13.6756 13.6756 9.44444 18.8889 9.44444C24.1022 9.44444 28.3333 13.6756 28.3333 18.8889C28.3333 24.1022 24.1022 28.3333 18.8889 28.3333Z" fill="#585CF1"/>
</svg>
