<svg width="53" height="53" viewBox="0 0 53 53" fill="none" xmlns="http://www.w3.org/2000/svg">
<g clip-path="url(#clip0_2_2239)">
<path fill-rule="evenodd" clip-rule="evenodd" d="M26.5 53C21.2588 53 16.1352 51.4458 11.7773 48.534C7.41941 45.6221 4.02291 41.4834 2.01719 36.6411C0.0114696 31.7989 -0.513302 26.4706 0.509206 21.3301C1.53171 16.1896 4.05554 11.4678 7.76163 7.76168C11.4677 4.05559 16.1896 1.53171 21.3301 0.509202C26.4706 -0.513306 31.7989 0.0114821 36.6411 2.0172C41.4834 4.02293 45.6221 7.41951 48.534 11.7774C51.4458 16.1353 53 21.2588 53 26.5C53 33.5283 50.208 40.2686 45.2383 45.2383C40.2686 50.2081 33.5282 53 26.5 53ZM26.5 4.41668C22.1323 4.41668 17.8627 5.71184 14.2311 8.13839C10.5995 10.5649 7.76914 14.0139 6.0977 18.0491C4.42627 22.0843 3.98887 26.5245 4.84096 30.8083C5.69305 35.092 7.79635 39.0269 10.8848 42.1153C13.9732 45.2037 17.9079 47.3069 22.1917 48.159C26.4754 49.0111 30.9157 48.5738 34.9509 46.9023C38.9861 45.2309 42.4351 42.4004 44.8616 38.7689C47.2882 35.1373 48.5833 30.8677 48.5833 26.5C48.5833 20.6432 46.2566 15.0262 42.1152 10.8847C37.9738 6.74331 32.3568 4.41668 26.5 4.41668ZM36.8924 36.8924C36.6974 37.0875 36.4659 37.2422 36.211 37.3477C35.9562 37.4533 35.6831 37.5076 35.4073 37.5076C35.1315 37.5076 34.8584 37.4533 34.6036 37.3477C34.3488 37.2422 34.1173 37.0875 33.9222 36.8924L26.4668 29.4371L19.0115 36.8924C18.8191 37.0964 18.5877 37.2598 18.331 37.3727C18.0743 37.4857 17.7976 37.546 17.5172 37.55C17.2368 37.5541 16.9585 37.5018 16.6986 37.3963C16.4388 37.2908 16.2027 37.1342 16.0045 36.9358C15.8062 36.7375 15.6499 36.5013 15.5446 36.2414C15.4393 35.9815 15.3872 35.7031 15.3915 35.4227C15.3957 35.1423 15.4562 34.8656 15.5694 34.609C15.6825 34.3524 15.846 34.1211 16.0502 33.9288L23.5054 26.4735L16.0502 19.0182C15.846 18.8259 15.6825 18.5946 15.5694 18.338C15.4562 18.0814 15.3957 17.8047 15.3915 17.5243C15.3872 17.2439 15.4393 16.9655 15.5446 16.7056C15.6499 16.4457 15.8062 16.2096 16.0045 16.0112C16.2027 15.8128 16.4388 15.6562 16.6986 15.5507C16.9585 15.4453 17.2368 15.393 17.5172 15.397C17.7976 15.4011 18.0743 15.4614 18.331 15.5743C18.5877 15.6873 18.8191 15.8506 19.0115 16.0546L26.4668 23.5099L33.9222 16.0546C34.116 15.8563 34.3472 15.6985 34.6024 15.5902C34.8576 15.4819 35.1317 15.4253 35.4089 15.4237C35.6862 15.4221 35.9609 15.4755 36.2174 15.5809C36.4738 15.6862 36.7069 15.8414 36.9029 16.0375C37.0989 16.2335 37.2542 16.4665 37.3596 16.7229C37.4649 16.9794 37.5183 17.2542 37.5167 17.5314C37.5151 17.8086 37.4586 18.0828 37.3503 18.338C37.242 18.5932 37.0841 18.8244 36.8858 19.0182L29.4305 26.4735L36.8858 33.9288C37.2791 34.3213 37.5006 34.8537 37.5019 35.4093C37.5031 35.9649 37.2839 36.4983 36.8924 36.8924Z" fill="#FF1C1C"/>
</g>
<defs>
<clipPath id="clip0_2_2239">
<rect width="53" height="53" fill="white"/>
</clipPath>
</defs>
</svg>
