<svg width="26" height="26" viewBox="0 0 26 26" fill="none" xmlns="http://www.w3.org/2000/svg">
<path d="M16.9758 24.2886L19.565 21.6669C19.7664 21.4657 19.9262 21.2267 20.0353 20.9637C20.1443 20.7007 20.2004 20.4187 20.2004 20.134C20.2004 19.8492 20.1443 19.5673 20.0353 19.3043C19.9262 19.0412 19.7664 18.8023 19.565 18.6011L18.0916 17.1602C17.8904 16.9588 17.6515 16.799 17.3884 16.6899C17.1254 16.5809 16.8435 16.5248 16.5587 16.5248C16.274 16.5248 15.992 16.5809 15.729 16.6899C15.466 16.799 15.227 16.9588 15.0258 17.1602L14.0508 18.1352C11.5409 16.6306 9.43901 14.5325 7.92997 12.0252L8.90497 11.0502C9.10642 10.849 9.26623 10.61 9.37527 10.347C9.4843 10.084 9.54043 9.80205 9.54043 9.51731C9.54043 9.23258 9.4843 8.95064 9.37527 8.68761C9.26623 8.42458 9.10642 8.18562 8.90497 7.9844L7.44247 6.50023C7.24052 6.2922 6.99887 6.12683 6.73183 6.0139C6.4648 5.90096 6.17782 5.84277 5.88789 5.84277C5.59796 5.84277 5.31097 5.90096 5.04394 6.0139C4.77691 6.12683 4.53526 6.2922 4.3333 6.50023L1.78747 9.10023C1.61002 9.27652 1.49904 9.50878 1.47337 9.75759C1.4477 10.0064 1.50892 10.2564 1.64664 10.4652C5.32909 16.0001 10.076 20.7469 15.6108 24.4294C15.8196 24.5671 16.0696 24.6283 16.3184 24.6027C16.5673 24.577 16.7995 24.466 16.9758 24.2886Z" stroke="#5B5B5B" stroke-width="1.75" stroke-linecap="round" stroke-linejoin="round"/>
<path d="M8.73163 3.35836C10.6655 2.3219 12.88 1.93062 15.052 2.24161C17.2239 2.55261 19.2397 3.54961 20.805 5.08711C22.3703 6.62461 23.4033 8.62213 23.7532 10.7882C24.1031 12.9542 23.7516 15.1754 22.75 17.1275" stroke="#5B5B5B" stroke-width="1.75" stroke-linecap="round" stroke-linejoin="round"/>
<path d="M14.0833 6.15332V12.22H18.4166" stroke="#5B5B5B" stroke-width="1.75" stroke-linecap="round" stroke-linejoin="round"/>
</svg>
