<svg width="26" height="26" viewBox="0 0 26 26" fill="none" xmlns="http://www.w3.org/2000/svg">
<path d="M8.49022 18.5253H15.9069M8.49022 13.5808H15.9069M8.49022 8.63639H9.72633M13.4347 1.21973H7.50133C6.11676 1.21973 5.42447 1.21973 4.89563 1.48919C4.43045 1.7262 4.05225 2.1044 3.81524 2.56958C3.54578 3.09842 3.54578 3.79071 3.54578 5.17528V19.5142C3.54578 20.8987 3.54578 21.5911 3.81524 22.1199C4.05225 22.585 4.43045 22.9633 4.89563 23.2003C5.42447 23.4697 6.11676 23.4697 7.50133 23.4697H16.8958C18.2803 23.4697 18.9727 23.4697 19.5015 23.2003C19.9667 22.9633 20.3449 22.585 20.5819 22.1199C20.8513 21.5911 20.8513 20.8987 20.8513 19.5142V8.63639M13.4347 1.21973L20.8513 8.63639M13.4347 1.21973V6.65862C13.4347 7.3509 13.4347 7.69705 13.5694 7.96146C13.6879 8.19405 13.8769 8.38315 14.1096 8.50167C14.374 8.63639 14.7201 8.63639 15.4124 8.63639H20.8513" stroke="#5B5B5B" stroke-width="1.7" stroke-linecap="round" stroke-linejoin="round"/>
</svg>
