<svg width="32" height="32" viewBox="0 0 32 32" fill="none" xmlns="http://www.w3.org/2000/svg">
<g clip-path="url(#clip0_1_1285)">
<path d="M16 31.2C24.3942 31.2 31.2 24.3942 31.2 16C31.2 7.60576 24.3942 0.799957 16 0.799957C7.60585 0.799957 0.800049 7.60576 0.800049 16C0.800049 24.3942 7.60585 31.2 16 31.2Z" fill="white"/>
<path d="M23.5709 14.3951C23.5861 14.2975 23.6001 14.2013 23.6001 14.0999C23.6001 13.0511 22.7489 12.1999 21.7001 12.1999H15.6834C15.6834 12.1999 16.3167 9.47152 16.3167 8.39992C16.3167 6.97365 15.3959 5.86659 14.1292 5.86659C13.4959 5.86659 13.4667 5.86659 13.4667 5.86659V7.59432L12.2837 11.4995C11.8416 12.3203 10.9853 12.8333 10.0518 12.8333H9.66675V21.0666H10.9334C11.7441 21.8773 12.8448 22.3333 13.9911 22.3333H20.4334C21.3479 22.3333 22.1117 21.686 22.2916 20.8247L22.2929 20.8209C22.2941 20.8171 22.2941 20.8145 22.2954 20.8107L23.5557 14.5002C23.5583 14.4875 23.5608 14.4761 23.5633 14.4635L23.576 14.4014L23.5709 14.3951Z" fill="#26BD5A"/>
</g>
<defs>
<clipPath id="clip0_1_1285">
<rect width="32" height="32" fill="white"/>
</clipPath>
</defs>
</svg>
