<svg width="26" height="26" viewBox="0 0 26 26" fill="none" xmlns="http://www.w3.org/2000/svg">
<path d="M13 15.7083V17.875M7.58337 10.8645C8.09408 10.8333 8.72368 10.8333 9.53337 10.8333H16.4667C17.2764 10.8333 17.906 10.8333 18.4167 10.8645M7.58337 10.8645C6.94603 10.9034 6.49385 10.991 6.10791 11.1876C5.49638 11.4991 4.99919 11.9963 4.6876 12.6078C4.33337 13.3031 4.33337 14.2131 4.33337 16.0333V17.55C4.33337 19.3702 4.33337 20.2802 4.6876 20.9755C4.99919 21.587 5.49638 22.0842 6.10791 22.3958C6.80311 22.75 7.7132 22.75 9.53337 22.75H16.4667C18.2869 22.75 19.1969 22.75 19.8922 22.3958C20.5037 22.0842 21.0009 21.587 21.3125 20.9755C21.6667 20.2802 21.6667 19.3702 21.6667 17.55V16.0333C21.6667 14.2131 21.6667 13.3031 21.3125 12.6078C21.0009 11.9963 20.5037 11.4991 19.8922 11.1876C19.5062 10.991 19.054 10.9034 18.4167 10.8645M7.58337 10.8645V8.66667C7.58337 5.67513 10.0085 3.25 13 3.25C15.9916 3.25 18.4167 5.67513 18.4167 8.66667V10.8645" stroke="#5B5B5B" stroke-width="2" stroke-linecap="round" stroke-linejoin="round"/>
</svg>
