<svg width="25" height="25" viewBox="0 0 25 25" fill="none" xmlns="http://www.w3.org/2000/svg">
<path d="M9.37701 7.29183C9.38963 5.02617 9.4901 3.79918 10.2905 2.99879C11.2058 2.0835 12.6789 2.0835 15.6252 2.0835H16.6669C19.6131 2.0835 21.0863 2.0835 22.0015 2.99879C22.9169 3.91408 22.9169 5.38721 22.9169 8.3335V16.6668C22.9169 19.6131 22.9169 21.0862 22.0015 22.0015C21.0863 22.9168 19.6131 22.9168 16.6669 22.9168H15.6252C12.6789 22.9168 11.2058 22.9168 10.2905 22.0015C9.4901 21.2011 9.38963 19.9741 9.37701 17.7085" stroke="#5B5B5B" stroke-width="2" stroke-linecap="round"/>
<path d="M15.625 12.5H2.08331M2.08331 12.5L5.72915 9.375M2.08331 12.5L5.72915 15.625" stroke="#5B5B5B" stroke-width="2" stroke-linecap="round" stroke-linejoin="round"/>
</svg>
