<svg width="53" height="53" viewBox="0 0 53 53" fill="none" xmlns="http://www.w3.org/2000/svg">
<path d="M19.8794 15.4582C19.9061 10.655 20.1191 8.05376 21.816 6.35692C23.7565 4.4165 26.8795 4.4165 33.1255 4.4165H35.3339C41.5799 4.4165 44.7032 4.4165 46.6434 6.35692C48.5839 8.29734 48.5839 11.4204 48.5839 17.6665V35.3332C48.5839 41.5792 48.5839 44.7022 46.6434 46.6427C44.7032 48.5832 41.5799 48.5832 35.3339 48.5832H33.1255C26.8795 48.5832 23.7565 48.5832 21.816 46.6427C20.1191 44.9458 19.9061 42.3446 19.8794 37.5415" stroke="#FF1C1C" stroke-width="4" stroke-linecap="round"/>
<path d="M33.1248 26.5H4.4165M4.4165 26.5L12.1457 19.875M4.4165 26.5L12.1457 33.125" stroke="#FF1C1C" stroke-width="4" stroke-linecap="round" stroke-linejoin="round"/>
</svg>
