<svg width="23" height="23" viewBox="0 0 23 23" fill="none" xmlns="http://www.w3.org/2000/svg">
<g clip-path="url(#clip0_4_2722)">
<path d="M14.334 18.3491C14.334 19.1007 14.0354 19.8216 13.5039 20.3531C12.9725 20.8846 12.2516 21.1832 11.5 21.1832C10.7484 21.1832 10.0275 20.8846 9.49596 20.3531C8.96446 19.8216 8.66586 19.1007 8.66586 18.3491" stroke="#585CF1" stroke-width="2" stroke-linecap="round" stroke-linejoin="round"/>
<path d="M5.43591 17.4044C4.97353 17.3062 4.56473 17.0384 4.29016 16.6536C4.01558 16.2689 3.8952 15.7952 3.95276 15.3261L4.89745 7.66455C5.13865 6.08941 5.94049 4.65431 7.1555 3.6233C8.3705 2.59228 9.91693 2.03469 11.5104 2.05305C13.1038 2.03469 14.6501 2.59228 15.8651 3.6233C17.0802 4.65431 17.882 6.08941 18.1232 7.66455L19.0679 15.3261C19.1258 15.7939 19.0067 16.2664 18.7341 16.651C18.4614 17.0355 18.0548 17.3043 17.5942 17.4044C13.5959 18.3439 9.43421 18.3439 5.43591 17.4044Z" stroke="#585CF1" stroke-width="2" stroke-linecap="round" stroke-linejoin="round"/>
<circle cx="16.6636" cy="4.6637" r="4.5" fill="#FF0909"/>
</g>
<defs>
<clipPath id="clip0_4_2722">
<rect width="22.6727" height="22.6727" fill="white" transform="translate(0.163605 0.163696)"/>
</clipPath>
</defs>
</svg>
