<svg width="19" height="18" viewBox="0 0 19 18" fill="none" xmlns="http://www.w3.org/2000/svg">
<path fill-rule="evenodd" clip-rule="evenodd" d="M2.50728 0.945767C3.66665 -0.207011 5.57557 -0.00181404 6.54634 1.29493L7.74729 2.89912C8.5372 3.95425 8.46749 5.42893 7.52987 6.36122L7.30244 6.58734C7.29253 6.61618 7.26844 6.70686 7.2952 6.87919C7.35539 7.26729 7.67949 8.09053 9.03996 9.44329C10.4 10.7956 11.229 11.1194 11.6226 11.1798C11.801 11.2071 11.8943 11.1816 11.9232 11.1715L12.3118 10.7851C13.1453 9.95634 14.4262 9.80138 15.4582 10.3624L17.2777 11.3516C18.8357 12.1985 19.2294 14.3163 17.9528 15.5856L16.6 16.9308C16.1737 17.3546 15.6004 17.708 14.9008 17.7733C13.178 17.934 9.16063 17.729 4.93957 13.5319C0.998705 9.61338 0.242458 6.19624 0.146772 4.51259C0.0983911 3.66125 0.500687 2.94097 1.01242 2.43214L2.50728 0.945767ZM5.40273 2.15106C4.92023 1.50655 4.02091 1.4553 3.51455 1.95879L2.0197 3.44517C1.70549 3.75759 1.55431 4.10191 1.57304 4.43155C1.64907 5.76925 2.25983 8.85272 5.94685 12.5188C9.81491 16.3649 13.3875 16.4797 14.7682 16.3509C15.0503 16.3246 15.3309 16.178 15.5927 15.9178L16.9456 14.5725C17.4956 14.0258 17.3742 13.03 16.5954 12.6066L14.7759 11.6176C14.2734 11.3444 13.6847 11.4345 13.319 11.7981L12.8853 12.2295L12.3817 11.7229C12.8853 12.2295 12.8846 12.2301 12.884 12.2308L12.8825 12.2321L12.8796 12.235L12.8734 12.241L12.8595 12.254C12.8495 12.2631 12.838 12.2731 12.8251 12.2839C12.7992 12.3053 12.7674 12.3295 12.7294 12.355C12.6531 12.406 12.5524 12.4617 12.4259 12.5087C12.168 12.6048 11.8278 12.6564 11.4061 12.5918C10.5805 12.4652 9.48701 11.9023 8.03272 10.4563C6.57891 9.01081 6.01133 7.92228 5.88349 7.0982C5.81811 6.67682 5.87026 6.33654 5.96752 6.07838C6.01519 5.95187 6.07136 5.85127 6.12291 5.77518C6.14863 5.73724 6.17309 5.70552 6.19469 5.67975C6.20549 5.66686 6.21558 5.65545 6.22476 5.64548L6.23784 5.63159L6.24383 5.62544L6.24668 5.62256L6.24807 5.62117C6.24874 5.62049 6.24943 5.61981 6.7531 6.12632L6.24943 5.61981L6.52258 5.3482C6.93082 4.94233 6.98796 4.26857 6.60368 3.75526L5.40273 2.15106Z" fill="#767676"/>
</svg>
