<svg width="22" height="22" viewBox="0 0 22 22" fill="none" xmlns="http://www.w3.org/2000/svg">
<g clip-path="url(#clip0_4_2729)">
<path fill-rule="evenodd" clip-rule="evenodd" d="M15.6193 14.3223C16.7488 12.9103 17.4242 11.1192 17.4242 9.17039C17.4242 4.61196 13.7288 0.916626 9.17042 0.916626C4.61199 0.916626 0.916656 4.61196 0.916656 9.17039C0.916656 13.7288 4.61199 17.4241 9.17042 17.4241C11.1192 17.4241 12.9103 16.7487 14.3224 15.6192L19.5177 20.8147C19.8759 21.1729 20.4566 21.1729 20.8147 20.8147C21.1729 20.4566 21.1729 19.8759 20.8147 19.5177L15.6193 14.3223ZM9.17042 15.5992C5.61989 15.5992 2.74162 12.7209 2.74162 9.17039C2.74162 5.61986 5.61989 2.74159 9.17042 2.74159C12.7209 2.74159 15.5992 5.61986 15.5992 9.17039C15.5992 12.7209 12.7209 15.5992 9.17042 15.5992Z" fill="#585CF1"/>
</g>
<defs>
<clipPath id="clip0_4_2729">
<rect width="22" height="22" fill="white"/>
</clipPath>
</defs>
</svg>
